<svg xmlns="http://www.w3.org/2000/svg" viewBox="0 0 500 500"><g id="freepik--background-simple--inject-71"><path d="M293.5,224C223.7,205,199,55,95.92,136.94c-73.14,58.11-28.41,199.78,63.35,183.24,55.54-10,47-11,94,15.91,47.68,27.3,100.19,41,151.15-7.44,26.37-25.07,36.74-86.13,11.13-117.72C383.53,171.42,336.14,235.51,293.5,224Z" style="fill:#83498C"></path><path d="M293.5,224C223.7,205,199,55,95.92,136.94c-73.14,58.11-28.41,199.78,63.35,183.24,55.54-10,47-11,94,15.91,47.68,27.3,100.19,41,151.15-7.44,26.37-25.07,36.74-86.13,11.13-117.72C383.53,171.42,336.14,235.51,293.5,224Z" style="fill:#fff;opacity:0.9"></path></g><g id="freepik--Shadow--inject-71"><ellipse id="freepik--path--inject-71" cx="250" cy="416.24" rx="193.89" ry="11.32" style="fill:#f5f5f5"></ellipse></g><g id="freepik--Plant--inject-71"><path d="M97.87,387.28s-5.68-12.38.81-24.59,8.36-15.09,4.23-17.59-6,9.77-6,9.77-3.49-8.44-.61-17.27,4.68-23.22.75-24.76-.75,17.94-4.16,24.59a57.32,57.32,0,0,1-3.33-14.49c-.48-7.1.26-18.43-2.84-21.33s-5.09-.9-2,14.76a163.2,163.2,0,0,1,3,28.38s-6.73-20.54-11.25-21.14-4.52,6.06-.65,11.83,11.33,16.1,12.56,21.42c0,0-7.4-15.46-14-10.72s5.79,14.07,11.34,17.44S95,388.1,95,388.1Z" style="fill:#83498C"></path><path d="M97.87,387.28s-5.68-12.38.81-24.59,8.36-15.09,4.23-17.59-6,9.77-6,9.77-3.49-8.44-.61-17.27,4.68-23.22.75-24.76-.75,17.94-4.16,24.59a57.32,57.32,0,0,1-3.33-14.49c-.48-7.1.26-18.43-2.84-21.33s-5.09-.9-2,14.76a163.2,163.2,0,0,1,3,28.38s-6.73-20.54-11.25-21.14-4.52,6.06-.65,11.83,11.33,16.1,12.56,21.42c0,0-7.4-15.46-14-10.72s5.79,14.07,11.34,17.44S95,388.1,95,388.1Z" style="isolation:isolate;opacity:0.2"></path><path d="M93.39,392.36s5.52-12.47-1.11-24.58-8.54-15-4.44-17.52S94,359.94,94,359.94s3.38-8.49.4-17.28-5-23.15-1-24.75,1,17.93,4.45,24.52A57,57,0,0,0,101,327.9c.39-7.1-.48-18.42,2.59-21.37s5.08-1,2.21,14.73a163.63,163.63,0,0,0-2.68,28.42s6.49-20.63,11-21.3,4.59,6,.79,11.81-11.14,16.27-12.3,21.6c0,0,7.21-15.56,13.91-10.92s-5.62,14.16-11.12,17.61-9.1,24.66-9.1,24.66Z" style="fill:#83498C"></path><polygon points="118.88 383.47 73.22 383.47 76.91 416.15 115.18 416.15 118.88 383.47" style="fill:#263238"></polygon></g><g id="freepik--arcade-machine--inject-71"><polygon points="230.35 414.92 230.35 303.33 195.37 286.83 195.37 262.21 255.87 246.76 265.04 181.08 241.81 161.29 246.66 133.38 331.99 133.38 372.5 147.83 372.5 414.92 230.35 414.92" style="fill:#83498C"></polygon><polygon points="246.66 133.38 331.99 133.38 327.13 161.29 241.81 161.29 246.66 133.38" style="fill:#fff;opacity:0.2"></polygon><polygon points="244.85 158.73 248.82 135.94 328.94 135.94 324.98 158.73 244.85 158.73" style="fill:#fff;opacity:0.5"></polygon><polygon points="265.04 181.08 350.36 181.08 327.13 161.29 241.81 161.29 265.04 181.08" style="opacity:0.2"></polygon><rect x="195.37" y="262.21" width="85.32" height="24.63" style="fill:#fff;opacity:0.2"></rect><polygon points="315.67 414.92 315.67 303.33 280.69 286.83 280.69 262.21 341.19 246.76 350.36 181.08 327.13 161.29 331.99 133.38 398.1 147.83 398.1 414.92 315.67 414.92" style="fill:#83498C"></polygon><polygon points="315.67 414.92 315.67 303.33 280.69 286.83 280.69 262.21 341.19 246.76 350.36 181.08 327.13 161.29 331.99 133.38 398.1 147.83 398.1 414.92 315.67 414.92" style="fill:#fff;opacity:0.5"></polygon><polygon points="195.37 286.83 280.69 286.83 315.67 303.33 230.35 303.33 195.37 286.83" style="opacity:0.2"></polygon><polygon points="255.87 246.76 341.19 246.76 350.36 181.08 265.04 181.08 255.87 246.76" style="fill:#263238"></polygon><polygon points="271.33 242.44 339.65 242.44 346.99 189.85 278.67 189.85 271.33 242.44" style="fill:#83498C"></polygon><path d="M281.79,211.65,278,202.42l8.77,3.37s-1.8-11.92-1.57-11.25,10.35,8.54,10.35,8.54,1.23-12.48,1.46-12.14,7.76,10,7.76,10l6.08-10,5.06,10,10.35-9.28v11.53l16.2-8.61-6,12.6L343,207l-2.81,5.51,3.13,3.66-3.13,4.11,1.85,5.06-7.36-1.13,4.16,11.37-11.92-4.11,1.46,9.06-11.93-8.44L314.19,240l-2.81-7.09-5.74,9-5.29-9.79-8,8.66,2.58-7.87L279.2,241l6.64-13.5-10.24,1.23,5.74-8.43L275,216Z" style="fill:#fff;opacity:0.2"></path><text transform="matrix(0.71, 0, -0.12, 0.99, 282.32, 221.33)" style="font-size:16.268840789794922px;fill:#fff;font-family:Montserrat-Bold, Montserrat;font-weight:700"><tspan style="letter-spacing:-0.002021436726138493em">Y</tspan><tspan x="11.1" y="0">OU WIN</tspan></text><polygon points="310.82 205.12 309.16 196.68 310.82 196.68 310.82 205.12" style="fill:#fff"></polygon><polygon points="318.81 205.12 321.06 194.54 323.53 194.54 318.81 205.12" style="fill:#fff"></polygon><polygon points="328.37 206.47 333.77 200.9 334.67 201.97 328.37 206.47" style="fill:#fff"></polygon><polygon points="299.57 205.12 296.87 194.54 294.39 195.33 299.57 205.12" style="fill:#fff"></polygon><polygon points="290.23 206.47 285.84 199.83 284.49 200.9 290.23 206.47" style="fill:#fff"></polygon><polygon points="286.74 225.37 279.43 230.77 280.69 232.12 286.74 225.37" style="fill:#fff"></polygon><polygon points="293.6 225.37 287.98 236.96 290.23 237.86 293.6 225.37" style="fill:#fff"></polygon><polygon points="307.22 226.27 305.19 239.54 307.22 239.54 307.22 226.27" style="fill:#fff"></polygon><polygon points="317.79 226.27 323.53 236.73 325.67 235.27 317.79 226.27" style="fill:#fff"></polygon><polygon points="329.49 227.51 334.67 232.12 335.79 230.32 329.49 227.51" style="fill:#fff"></polygon><polygon points="281.34 216.15 277.07 215.69 277.07 216.71 281.34 216.15" style="fill:#fff"></polygon><polygon points="340.18 215.24 342.43 215.24 342.43 216.71 340.18 215.24" style="fill:#fff"></polygon><polygon points="251.59 136.94 325.55 136.94 323.16 138.26 326.23 140.61 322.25 143.38 326.23 145.8 323.16 148.59 324.87 149.55 320.97 150.59 324.87 152.64 321.69 153.89 324.07 155.05 320.97 157.19 246.99 157.19 249.37 155.05 248.01 154.85 249.71 152.64 247.84 151.69 250.05 147.83 248.18 145.8 250.82 143.01 249.2 140.81 250.82 140.61 249.54 137.82 251.59 136.94" style="fill:#fff;opacity:0.5"></polygon><path d="M263.24,149.53h-4.62l-1.33,2.12h-1.82l6-9.18h1.69l2.29,9.18h-1.7Zm-.32-1.34-.93-4-2.53,4Z" style="fill:#83498C"></path><path d="M272.81,148.74l1.64,2.91h-1.81L271.13,149h-2.29l-.52,2.69H266.6l1.84-9.18H272c2.21,0,3.49,1,3.49,2.76A3.44,3.44,0,0,1,272.81,148.74Zm1-3.35c0-1-.71-1.48-2-1.48h-1.95l-.74,3.65h2C272.82,147.56,273.78,146.81,273.78,145.39Z" style="fill:#83498C"></path><path d="M276.39,147.86a5.39,5.39,0,0,1,5.66-5.53,4,4,0,0,1,3.49,1.54l-1.24,1a2.71,2.71,0,0,0-2.37-1.08,3.73,3.73,0,0,0-3.82,3.92c0,1.53,1,2.54,2.87,2.54a3.48,3.48,0,0,0,2.62-1.07l1,1.08a4.77,4.77,0,0,1-3.74,1.48C278.06,151.78,276.39,150.18,276.39,147.86Z" style="fill:#83498C"></path><path d="M292,149.53h-4.62l-1.33,2.12h-1.82l6-9.18h1.69l2.29,9.18h-1.7Zm-.32-1.34-.93-4-2.53,4Z" style="fill:#83498C"></path><path d="M297.21,142.47h3.71c2.8,0,4.46,1.48,4.46,3.79,0,3.25-2.29,5.39-5.72,5.39h-4.29Zm2.5,7.74a3.69,3.69,0,0,0,4-3.85c0-1.51-1-2.45-2.92-2.45h-2.11l-1.26,6.3Z" style="fill:#83498C"></path><path d="M309.45,143.9l-.47,2.38h4.45l-.27,1.41h-4.47l-.5,2.53h5.2l-.29,1.43h-6.89l1.84-9.18h6.71l-.29,1.43Z" style="fill:#83498C"></path><polygon points="398.1 147.83 327.13 161.29 331.99 133.38 398.1 147.83" style="opacity:0.1"></polygon><rect x="252.09" y="320.33" width="32.4" height="43.64" rx="2.36" style="fill:#fff;opacity:0.2"></rect><path d="M288.74,251.05c0,.6-1.44,1.1-3.21,1.1s-3.2-.5-3.2-1.1,1.43-1.1,3.2-1.1S288.74,250.44,288.74,251.05Z" style="fill:#fff;opacity:0.5"></path><path d="M299.2,253.39c0,.6-1.44,1.09-3.21,1.09s-3.21-.49-3.21-1.09,1.44-1.1,3.21-1.1S299.2,252.78,299.2,253.39Z" style="fill:#fff;opacity:0.5"></path><path d="M273,254.48c0,.61-1.44,1.1-3.21,1.1s-3.2-.49-3.2-1.1,1.43-1.09,3.2-1.09S273,253.88,273,254.48Z" style="fill:#fff;opacity:0.5"></path><ellipse cx="248.96" cy="253.39" rx="6.58" ry="1.13" style="fill:#263238"></ellipse><path d="M283.46,256.82c0,.6-1.44,1.1-3.21,1.1s-3.2-.5-3.2-1.1,1.43-1.1,3.2-1.1S283.46,256.21,283.46,256.82Z" style="fill:#fff;opacity:0.5"></path><rect x="247.91" y="238.31" width="2.11" height="15.08" style="fill:#263238"></rect><circle cx="248.96" cy="237.61" r="2.17" style="fill:#83498C"></circle><polygon points="382.37 163.72 365.95 168.44 384.4 184.87 382.37 163.72" style="fill:#fff;opacity:0.2"></polygon><rect x="202.15" y="268.87" width="28.23" height="12.49" rx="2.73" transform="translate(432.54 550.23) rotate(180)" style="fill:#fff;opacity:0.2"></rect><rect x="270.71" y="270.9" width="0.9" height="8.44" transform="translate(542.32 550.23) rotate(180)" style="opacity:0.2"></rect><rect x="268.4" y="270.9" width="0.9" height="8.44" transform="translate(537.71 550.23) rotate(180)" style="opacity:0.2"></rect><rect x="266.1" y="270.9" width="0.9" height="8.44" transform="translate(533.09 550.23) rotate(180)" style="opacity:0.2"></rect><rect x="263.79" y="270.9" width="0.9" height="8.44" transform="translate(528.48 550.23) rotate(180)" style="opacity:0.2"></rect><rect x="261.48" y="270.9" width="0.9" height="8.44" transform="translate(523.87 550.23) rotate(180)" style="opacity:0.2"></rect><rect x="259.18" y="270.9" width="0.9" height="8.44" transform="translate(519.26 550.23) rotate(180)" style="opacity:0.2"></rect><rect x="256.87" y="270.9" width="0.9" height="8.44" transform="translate(514.64 550.23) rotate(180)" style="opacity:0.2"></rect><rect x="254.57" y="270.9" width="0.9" height="8.44" transform="translate(510.03 550.23) rotate(180)" style="opacity:0.2"></rect><rect x="252.26" y="270.9" width="0.9" height="8.44" transform="translate(505.42 550.23) rotate(180)" style="opacity:0.2"></rect><path d="M313.91,155.32h-57a6.49,6.49,0,0,1-5.6-2.95,7.76,7.76,0,0,1-.61-6.73h0a10,10,0,0,1,9-6.85h57a6.51,6.51,0,0,1,5.61,3,7.8,7.8,0,0,1,.61,6.73A10,10,0,0,1,313.91,155.32Zm-61.58-9.38a6.1,6.1,0,0,0,.48,5.29,5.09,5.09,0,0,0,4.41,2.32h57a7.85,7.85,0,0,0,7.1-5.38,6.11,6.11,0,0,0-.48-5.3,5.1,5.1,0,0,0-4.41-2.31h-57a7.84,7.84,0,0,0-7.09,5.38Z" style="fill:#83498C"></path><polygon points="398.1 241.06 364.82 202.13 364.82 276.51 317.79 275.05 354.02 336.66 330.44 366.35 354.36 388.04 346.99 414.47 398.1 414.47 398.1 241.06" style="fill:#83498C"></polygon><polygon points="398.1 252.24 372.5 224.32 373.93 287.15 335.79 285.31 364.15 334.97 343.31 363.86 363.13 383.94 355.94 414.81 398.1 414.47 398.1 252.24" style="fill:#fff;opacity:0.2"></polygon><polygon points="398.1 271.79 384.4 261.54 384.4 300.35 362.61 297.78 382.71 334.97 365.95 359.2 380.36 372.98 375.17 414.81 399.59 416.15 398.1 271.79" style="fill:#fff;opacity:0.2"></polygon></g><g id="freepik--trash-bin--inject-71"><path d="M416.25,392.65a2.7,2.7,0,0,0-2.16-3.88,5.8,5.8,0,0,0-1.84-6.33,1.35,1.35,0,0,0-.8-.35,1.5,1.5,0,0,0-.85.38l-5.07,3.64a3,3,0,0,0-1,1c-1,2,2.7,4.58,1.17,6.23-.44.48-1.15.58-1.7.92-1.21.76-1.36,2.41-1.92,3.72s-2.52,2.32-3.27,1.11c.55-1.25-1.12-2.33-2.48-2.49s-2.78-.24-3.54-1.51c-1.93,1.68-6.25-3-6.15-4.92a3.73,3.73,0,0,0-3,3.09,22.61,22.61,0,0,0-.16,4.73c-.05,3.08-1,6.09-1,9.16,0,2.39,1,5.05,3.15,6a8.47,8.47,0,0,0,3.4.46l24.93-.16a4,4,0,0,0,1.76-.29c1.12-.59,1.36-2.07,1.46-3.33q.68-8.13,1.34-16.25Z" style="fill:#83498C"></path><path d="M416.25,392.65a2.7,2.7,0,0,0-2.16-3.88,5.8,5.8,0,0,0-1.84-6.33,1.35,1.35,0,0,0-.8-.35,1.5,1.5,0,0,0-.85.38l-5.07,3.64a3,3,0,0,0-1,1c-1,2,2.7,4.58,1.17,6.23-.44.48-1.15.58-1.7.92-1.21.76-1.36,2.41-1.92,3.72s-2.52,2.32-3.27,1.11c.55-1.25-1.12-2.33-2.48-2.49s-2.78-.24-3.54-1.51c-1.93,1.68-6.25-3-6.15-4.92a3.73,3.73,0,0,0-3,3.09,22.61,22.61,0,0,0-.16,4.73c-.05,3.08-1,6.09-1,9.16,0,2.39,1,5.05,3.15,6a8.47,8.47,0,0,0,3.4.46l24.93-.16a4,4,0,0,0,1.76-.29c1.12-.59,1.36-2.07,1.46-3.33q.68-8.13,1.34-16.25Z" style="fill:#fff;isolation:isolate;opacity:0.30000000000000004"></path><path d="M417.71,366.3H379l.32,3.91.23,2.79.59,7.26.34,4.17.44,5.56.19,2.38.06.71.23,2.8.31,3.84.19,2.38.2,2.41.23,2.8.17,2.12.19,2.38.08,1H418.3l.08-1,.19-2.37.18-2.13.22-2.8.2-2.41.19-2.38.31-3.85.23-2.79.06-.71.19-2.38.45-5.56.34-4.16.58-7.27.23-2.79.31-3.91Zm2.33,2.56h0l-.75-.74h.81Zm-.19,2.38-.08.94-3.46,3.46-4-4,3.55-3.55h.84Zm-1,12.38-2.54,2.53-4-4,4-4,2.75,2.74ZM382,381h0l2.75-2.74,4,4-4,4-2.53-2.53Zm33-4-4,4-4-4,4-4Zm-6.25-8.81h4.55l-2.27,2.27Zm1,14.06-4,4-4-4,4-4Zm-13.19,5.25,4-4,4,4-4,4Zm2.68,5.26-4,4-4-4,4-4Zm6.54-4,4,4-4,4-4-4Zm-5.25-7.83-4-4,4-4,4,4Zm-1.29,1.28-4,4-4-4,4-4ZM390,380.9l-4-4,4-4,4,4Zm0,2.57,4,4-4,4-4-4ZM394,398l-4,4-4-4,4-4Zm1.28,1.28,4,4-4,4-4-4Zm1.3-1.28,4-4,4,4-4,4Zm9.22,1.28,4,4-4,4-4-4Zm5.26,5.26,4,4L412.46,411h-2.8l-2.58-2.57Zm-4-6.54,4-4,4,4-4,4Zm0-10.52,4-4,4,4-4,4Zm2.69-15.76-4,4-4-4,3.55-3.55h.84Zm-9.22-1.28-2.27-2.27h4.53Zm-1.29,1.28-4,4-4-4,3.56-3.55h.83Zm-7-3.55L390,370.39l-2.26-2.27Zm-7.11,0,3.56,3.55-4,4-3.46-3.46-.07-.94,3.11-3.12Zm-3.4,0-.73.73h0l-.06-.73Zm-.24,6.86,1.94,1.95-1.65,1.65Zm1.08,13.32-.15-1.88h0l1,1-.86.87Zm.19,2.39,2-2,4,4-4,4-1.6-1.6Zm.59,7.34v-.17l.09.09-.08.08Zm.69,8.47-.5-6.09,1.18-1.18,4,4-4,4-.68-.67Zm.37,4.53-.08-.91.39-.38,1.29,1.29Zm1.6-2.57,4-4,4,4L391.43,411h-2.8ZM394,411l1.29-1.29,1.29,1.29Zm5.15,0-2.57-2.57,4-4,4,4L402,411Zm5.36,0,1.29-1.29,1.29,1.29Zm12.11,0H415l1.29-1.29.38.38Zm.37-4.53-.68.67-4-4,4-4,1.17,1.18Zm.7-8.65,0,.18-.08-.08.1-.1Zm.23-2.79-1.61,1.6-4-4,4-4,2,2Zm.54-6.75-.87-.88,1-1ZM419.55,375l-.29,3.62-1.67-1.66,2-2Z" style="fill:#83498C"></path><g style="isolation:isolate;opacity:0.7000000000000001"><path d="M417.71,366.3H379l.32,3.91.23,2.79.59,7.26.34,4.17.44,5.56.19,2.38.06.71.23,2.8.31,3.84.19,2.38.2,2.41.23,2.8.17,2.12.19,2.38.08,1H418.3l.08-1,.19-2.37.18-2.13.22-2.8.2-2.41.19-2.38.31-3.85.23-2.79.06-.71.19-2.38.45-5.56.34-4.16.58-7.27.23-2.79.31-3.91Zm2.33,2.56h0l-.75-.74h.81Zm-.19,2.38-.08.94-3.46,3.46-4-4,3.55-3.55h.84Zm-1,12.38-2.54,2.53-4-4,4-4,2.75,2.74ZM382,381h0l2.75-2.74,4,4-4,4-2.53-2.53Zm33-4-4,4-4-4,4-4Zm-6.25-8.81h4.55l-2.27,2.27Zm1,14.06-4,4-4-4,4-4Zm-13.19,5.25,4-4,4,4-4,4Zm2.68,5.26-4,4-4-4,4-4Zm6.54-4,4,4-4,4-4-4Zm-5.25-7.83-4-4,4-4,4,4Zm-1.29,1.28-4,4-4-4,4-4ZM390,380.9l-4-4,4-4,4,4Zm0,2.57,4,4-4,4-4-4ZM394,398l-4,4-4-4,4-4Zm1.28,1.28,4,4-4,4-4-4Zm1.3-1.28,4-4,4,4-4,4Zm9.22,1.28,4,4-4,4-4-4Zm5.26,5.26,4,4L412.46,411h-2.8l-2.58-2.57Zm-4-6.54,4-4,4,4-4,4Zm0-10.52,4-4,4,4-4,4Zm2.69-15.76-4,4-4-4,3.55-3.55h.84Zm-9.22-1.28-2.27-2.27h4.53Zm-1.29,1.28-4,4-4-4,3.56-3.55h.83Zm-7-3.55L390,370.39l-2.26-2.27Zm-7.11,0,3.56,3.55-4,4-3.46-3.46-.07-.94,3.11-3.12Zm-3.4,0-.73.73h0l-.06-.73Zm-.24,6.86,1.94,1.95-1.65,1.65Zm1.08,13.32-.15-1.88h0l1,1-.86.87Zm.19,2.39,2-2,4,4-4,4-1.6-1.6Zm.59,7.34v-.17l.09.09-.08.08Zm.69,8.47-.5-6.09,1.18-1.18,4,4-4,4-.68-.67Zm.37,4.53-.08-.91.39-.38,1.29,1.29Zm1.6-2.57,4-4,4,4L391.43,411h-2.8ZM394,411l1.29-1.29,1.29,1.29Zm5.15,0-2.57-2.57,4-4,4,4L402,411Zm5.36,0,1.29-1.29,1.29,1.29Zm12.11,0H415l1.29-1.29.38.38Zm.37-4.53-.68.67-4-4,4-4,1.17,1.18Zm.7-8.65,0,.18-.08-.08.1-.1Zm.23-2.79-1.61,1.6-4-4,4-4,2,2Zm.54-6.75-.87-.88,1-1ZM419.55,375l-.29,3.62-1.67-1.66,2-2Z" style="fill:#fff"></path></g><rect x="376.55" y="364.68" width="48" height="5.06" rx="1.64" transform="translate(801.09 734.42) rotate(180)" style="fill:#263238"></rect><rect x="380.01" y="410.13" width="41.08" height="5.06" rx="1.64" style="fill:#263238"></rect></g><g id="freepik--Character--inject-71"><path d="M181.94,155.19a3.53,3.53,0,0,0-3-2.67s2,1.89,1.78,3.8S182.59,156.52,181.94,155.19Z" style="fill:#263238"></path><path d="M149.05,185l-1.76,1.79a2.9,2.9,0,0,0-.79,2.54l.76,4.33a5.43,5.43,0,0,0,3,4l1,.47c3.11-2.76,4.44-8,4.44-8l.55-1.46a2.42,2.42,0,0,0-1.36-3.16L152,184.29A2.78,2.78,0,0,0,149.05,185Z" style="fill:#ffc3bd"></path><path d="M229,144.53l1.53,2a2.9,2.9,0,0,1,.49,2.62l-1.27,4.21a5.43,5.43,0,0,1-3.47,3.57l-1,.35c-2.76-3.11-3.46-8.5-3.46-8.5l-.36-1.52a2.41,2.41,0,0,1,1.72-3l3-.77A2.78,2.78,0,0,1,229,144.53Z" style="fill:#ffc3bd"></path><path d="M162.37,200c-2.72,2.74-4,4.8-6.77,7.5-1,.95-1.95,1.86-2.92,2.75v-.31c-.05-3.69.3-7.73.55-11.65l-6.39-1.94a49.55,49.55,0,0,0-2.61,6,51.57,51.57,0,0,0-1.87,6.4,29.46,29.46,0,0,0-.76,7.27,15.79,15.79,0,0,0,.75,4.58c.12.41.35.9.53,1.35l.13.26.3.5c.11.16.21.31.33.47s.28.33.42.5a6.89,6.89,0,0,0,2.14,1.57,7.77,7.77,0,0,0,3.86.74,10.11,10.11,0,0,0,2.14-.4,14.59,14.59,0,0,0,2.54-1c.68-.34,1.26-.68,1.82-1,1.1-.68,2.07-1.35,3-2.05l.4-.3c1.71-1.26,3.23-2.58,4.75-3.9.95-.84,1.86-1.68,2.76-2.53,2.2-2.09,4.29-4.22,6.32-6.53Zm-8.75,16.39a3.66,3.66,0,0,1-.21-.46l.06.09a3.61,3.61,0,0,1,.24.42S153.66,216.45,153.62,216.38Z" style="fill:#83498C"></path><path d="M167.47,214.78c-.9.85-1.81,1.69-2.76,2.53-1.52,1.32-3,2.64-4.75,3.9.09-4.84,4.28-10.6,4.28-10.6A8.64,8.64,0,0,1,167.47,214.78Z" style="opacity:0.2"></path><path d="M190.07,168.4c.13.5.51.83.84.75s.48-.57.34-1.07-.51-.83-.84-.74S189.93,167.9,190.07,168.4Z" style="fill:#263238"></path><path d="M190.53,169.25a18.69,18.69,0,0,0,3.56,3.62,3,3,0,0,1-2.27,1.1Z" style="fill:#ed847e"></path><path d="M187.48,166.13a.33.33,0,0,1-.21-.07.31.31,0,0,1-.05-.43,3,3,0,0,1,2.52-1.17.29.29,0,0,1,.27.33.3.3,0,0,1-.33.27h0a2.42,2.42,0,0,0-2,.95A.35.35,0,0,1,187.48,166.13Z" style="fill:#263238"></path><path d="M176.11,176.48c1.22,4.63,2.71,13.16-.36,16.51,0,0,1.59,4.67,10.31,4.09,9.58-.63,4.26-5.05,4.26-5.05-5.31-.91-5.43-4.8-4.76-8.5Z" style="fill:#ffc3bd"></path><path d="M146.56,408.84a2,2,0,0,0,1.6-.09.62.62,0,0,0,.15-.7.68.68,0,0,0-.39-.45c-.87-.42-2.86.4-2.95.43a.16.16,0,0,0-.09.14.15.15,0,0,0,.09.14A7.86,7.86,0,0,0,146.56,408.84Zm1.05-1,.18.06a.45.45,0,0,1,.23.26c.08.28,0,.36-.05.39-.35.29-1.63,0-2.54-.34A5.19,5.19,0,0,1,147.61,407.81Z" style="fill:#83498C"></path><path d="M145,408.32h.07c.73-.21,2.28-1.32,2.3-2.05a.48.48,0,0,0-.39-.49.79.79,0,0,0-.67.06c-.86.43-1.4,2.21-1.42,2.29a.14.14,0,0,0,0,.15Zm1.82-2.27.06,0c.19.06.19.16.19.2,0,.43-1,1.29-1.79,1.64a3.68,3.68,0,0,1,1.17-1.8A.49.49,0,0,1,146.82,406.05Z" style="fill:#83498C"></path><path d="M194,409.92c.83,0,1.62-.12,1.89-.49a.56.56,0,0,0,0-.66.75.75,0,0,0-.48-.36c-1.07-.29-3.32,1-3.41,1a.14.14,0,0,0-.08.15.15.15,0,0,0,.12.13A11.52,11.52,0,0,0,194,409.92Zm1-1.25a1,1,0,0,1,.3,0,.48.48,0,0,1,.3.21c.1.19.06.28,0,.34-.29.41-1.92.42-3.11.25A6.92,6.92,0,0,1,195,408.67Z" style="fill:#83498C"></path><path d="M192.05,409.74h.07c.77-.35,2.31-1.74,2.19-2.47,0-.17-.15-.38-.57-.42a1.09,1.09,0,0,0-.84.26,4.35,4.35,0,0,0-1,2.47.17.17,0,0,0,.06.14A.16.16,0,0,0,192.05,409.74Zm1.57-2.6h.09c.28,0,.29.14.3.17.07.44-1,1.53-1.77,2a3.69,3.69,0,0,1,.85-2A.82.82,0,0,1,193.62,407.14Z" style="fill:#83498C"></path><polygon points="184.99 409.59 191.41 409.59 192.05 394.71 185.63 394.71 184.99 409.59" style="fill:#ffc3bd"></polygon><polygon points="137.84 406.61 144.12 407.97 150.42 394.12 144.14 392.76 137.84 406.61" style="fill:#ffc3bd"></polygon><path d="M144.72,407.34l-7.05-1.52a.55.55,0,0,0-.63.31l-2.45,5.31a1,1,0,0,0,.68,1.32c2.47.49,3.7.6,6.8,1.27,1.91.42,6.22,1.47,8.85,2s3.55-2,2.52-2.43c-4.61-2.11-6.54-4-7.78-5.69A1.58,1.58,0,0,0,144.72,407.34Z" style="fill:#263238"></path><path d="M191.37,408.84h-7a.57.57,0,0,0-.55.44L182.54,415a.94.94,0,0,0,.92,1.15c2.53-.05,6.19-.2,9.37-.2,3.72,0,6.93.21,11.3.21,2.63,0,3.36-2.67,2.26-2.91-5-1.1-9.13-1.22-13.47-3.89A2.89,2.89,0,0,0,191.37,408.84Z" style="fill:#263238"></path><path d="M203.42,244.33a2.23,2.23,0,0,1-2.2,1.85H167.31a2.24,2.24,0,0,1-2.24-2.29c.2-7.11,1.63-25.49-2.9-43.07a.88.88,0,0,1,.54-1.06,111.76,111.76,0,0,1,10.69-3.5c4.7-1.23,11.89-3,16.47-3.64a101,101,0,0,1,12.59-1s2.77,1.77,3.91,11.08a67.9,67.9,0,0,1,.47,8C206.92,218.49,206.08,229.29,203.42,244.33Z" style="fill:#83498C"></path><polygon points="192.05 394.72 191.72 402.38 185.3 402.38 185.63 394.72 192.05 394.72" style="opacity:0.2"></polygon><polygon points="144.14 392.76 150.42 394.12 147.17 401.26 140.89 399.9 144.14 392.76" style="opacity:0.2"></polygon><path d="M173.11,171.89c2,6,2.94,9.68,6.9,12,6,3.47,12.77-1.41,12.56-7.94-.18-5.88-3.51-14.76-10.18-15.56A8.69,8.69,0,0,0,173.11,171.89Z" style="fill:#ffc3bd"></path><path d="M176.59,181.73c2.71,1.32,11.91-4.31,9.45-11.75,0,0,3.34-4.6,2.61-9.39s-4.15-6.41-7.6-5.14c-3,1.11-2.84,2.8-2.84,2.8s-14.53,2.7-11,8.44C161.66,173.59,173.21,180.08,176.59,181.73Z" style="fill:#263238"></path><path d="M188.4,163.79s2.71-7.42-2.42-9.41A12.38,12.38,0,0,1,188.4,163.79Z" style="fill:#263238"></path><path d="M183.58,171.46a7.11,7.11,0,0,0,2.84,3.65c1.75,1.14,2.91-.17,2.67-2.05-.22-1.69-1.39-4.32-3.27-4.7S183,169.65,183.58,171.46Z" style="fill:#ffc3bd"></path><path d="M189.59,246.18s-7.29,49.09-11.3,67.49c-4.38,20.14-27.88,86.78-27.88,86.78L138.91,398s16.43-54.31,20.11-82.47c2.83-21.63,8.39-69.31,8.39-69.31Z" style="fill:#263238"></path><path d="M153.16,396.61c.05,0-2.14,4.15-2.14,4.15L138.08,398l1.09-3.89Z" style="fill:#83498C"></path><path d="M185,263.67c-8.43,1.65-7.54,33.09-6.52,49.26,2.43-11.43,6-33.42,8.42-49A2.88,2.88,0,0,0,185,263.67Z" style="opacity:0.30000000000000004"></path><path d="M201.78,246.18s.88,48,.18,67.62c-.73,20.38-7.84,87.1-7.84,87.1H183.23s-.39-65.53-.88-85.54c-.53-21.82-3.16-69.18-3.16-69.18Z" style="fill:#263238"></path><path d="M196.21,396.56s-.61,4.52-.61,4.52H182.36l-.36-4Z" style="fill:#83498C"></path><path d="M196.87,192.81c3.62-2.29,7.43-4.58,11.11-6.83,1.84-1.15,3.69-2.26,5.45-3.43.89-.58,1.78-1.14,2.61-1.72l.63-.44.16-.11.08-.05-.17.15-.19.19-.12.14a2.16,2.16,0,0,0-.16.22c-.16.24-.13.24-.1.22a1.9,1.9,0,0,0,.17-.28,19.41,19.41,0,0,0,.93-2.39c.31-.93.59-1.93.86-2.94.58-2,1.06-4.15,1.59-6.28,1-4.26,2-8.63,3.07-12.94l6.65.55a119.17,119.17,0,0,1,.11,13.76c-.1,2.3-.3,4.61-.56,7-.15,1.18-.32,2.38-.55,3.62a26.62,26.62,0,0,1-1,4c-.14.39-.3.8-.51,1.26a10.09,10.09,0,0,1-1,1.66c-.1.15-.27.36-.43.55l-.26.29-.35.34-.57.51-.69.61c-.92.81-1.82,1.6-2.75,2.33-1.85,1.47-3.69,2.9-5.59,4.22a121.55,121.55,0,0,1-11.66,7.41Z" style="fill:#83498C"></path><path d="M192.58,192.27s-8.53-8.53-20.3-4.91-2.59,10.81-2.59,10.81-3.59,5.34,2.2,9.38,16-11.53,16-11.53S189.87,192,192.58,192.27Z" style="fill:#83498C"></path><path d="M166.28,245.85l-.52,1.67,36.47.89.52-2.84S173.37,245.05,166.28,245.85Z" style="fill:#83498C"></path><path d="M166.28,245.85l-.52,1.67,36.47.89.52-2.84S173.37,245.05,166.28,245.85Z" style="opacity:0.2"></path><path d="M192.58,192.27s-8.53-8.53-20.3-4.91-2.59,10.81-2.59,10.81-3.59,5.34,2.2,9.38,16-11.53,16-11.53S189.87,192,192.58,192.27Z" style="opacity:0.2"></path><path d="M206.84,210.74c-3.29-1.67-6.2-9.26-6.2-9.26a6.22,6.22,0,0,0,5.73,1.25A67.9,67.9,0,0,1,206.84,210.74Z" style="opacity:0.2"></path><polygon points="222.79 156.32 222.79 154.38 229.69 155.03 229.44 156.87 222.79 156.32" style="fill:#83498C"></polygon><polygon points="146.84 196.34 147.62 194.54 153.56 196.41 153.23 198.28 146.84 196.34" style="fill:#83498C"></polygon><polygon points="222.79 156.32 222.79 154.38 229.69 155.03 229.44 156.87 222.79 156.32" style="opacity:0.2"></polygon><polygon points="146.84 196.34 147.62 194.54 153.56 196.41 153.23 198.28 146.84 196.34" style="opacity:0.2"></polygon><path d="M184.57,159.7v0a5.74,5.74,0,0,0-1.18-4.06l-1.46-.43a2.93,2.93,0,0,1,.94,1.82c-7.28-6.67-16.48,0-18.69,7.79a12.9,12.9,0,0,0-.48,2.93c-.22,5.18,3.81,7.56,7.53,8.66a24.59,24.59,0,0,0,6,.93A33.22,33.22,0,0,0,182.6,169h0A21.37,21.37,0,0,0,184.57,159.7Z" style="fill:#83498C"></path><path d="M184.57,159.7v0a5.74,5.74,0,0,0-1.18-4.06l-1.46-.43a2.93,2.93,0,0,1,.94,1.82c-7.28-6.67-16.48,0-18.69,7.79a12.9,12.9,0,0,0-.48,2.93c-.22,5.18,3.81,7.56,7.53,8.66a24.59,24.59,0,0,0,6,.93A33.22,33.22,0,0,0,182.6,169h0A21.37,21.37,0,0,0,184.57,159.7Z" style="fill:#fafafa;opacity:0.30000000000000004"></path><path d="M182.61,169h0c-.27.34-5.36,6.64-11.36,7.43-3.72-1.1-7.75-3.48-7.53-8.66a12.9,12.9,0,0,1,.48-2.93c1.7-3.54,4.49-3.85,4.49-3.85C170.71,164.82,182.61,169,182.61,169Z" style="fill:#fafafa;opacity:0.30000000000000004"></path><path d="M168.92,159.86c1-.06,0,2-.91,1.85S168,159.9,168.92,159.86Z" style="fill:#83498C"></path><path d="M182.6,169s-8.79,8.9-15.73,5.37c0,0-3.06,8.27-1.15,10S173.85,185.81,182.6,169Z" style="fill:#83498C"></path><path d="M182.6,169s-8.79,8.9-15.73,5.37c0,0-3.06,8.27-1.15,10S173.85,185.81,182.6,169Z" style="fill:#fafafa;opacity:0.6000000000000001"></path></g></svg>